<svg id="Layer_1" data-name="Layer 1" xmlns="http://www.w3.org/2000/svg" viewBox="0 0 113.75 36.48">
  <defs>
    <style>
      .cls-1 {
        fill: none;
      }

      .cls-1, .cls-2 {
        stroke: #000;
        stroke-with: 4;
        stroke-miterlimit: 10;
      }

      .cls-2 {
        fill: #fff;
      }
    </style>
  </defs>
  <title>good</title>
  <g class="word">
    <path class="cls-1" d="M44.8,10H38.57a5.73,5.73,0,0,0-2,.24,4.59,4.59,0,0,0-2.19,2.13A17.66,17.66,0,0,0,32.41,21a4.21,4.21,0,0,0,.35,2.1,4.12,4.12,0,0,0,1.1,1.18A30.55,30.55,0,0,0,52.63,31a11.47,11.47,0,0,1-2.36-5.06,3,3,0,0,0-.82-1.94,2.65,2.65,0,0,0-1.26-.41l-4.88-.73c-.33,0-.69-.54-.36-.58" transform="translate(-31.91 -9.5)"/>
    <path class="cls-1" d="M69.72,19.51a18.42,18.42,0,0,1,6.18.87,14.25,14.25,0,0,1,5,3.67c3.25,3.42,5.78,7.8,5.89,12.51a2,2,0,0,1-.22,1.14,2.12,2.12,0,0,1-1.35.72q-3.6.88-7.26,1.5c-4.32.73-9.12,1.09-12.71-1.42-2.51-1.76-4-4.62-5.33-7.37-1.16-2.35-4.53-7.79-2.07-10.24S66.67,19.43,69.72,19.51Z" transform="translate(-31.91 -9.5)"/>
  </g>
  <g class="word" data-name="word">
    <path class="cls-2" d="M97.39,23.81a11.09,11.09,0,0,0,3.15,16.56,16.83,16.83,0,0,0,5.18,1.76,34.55,34.55,0,0,0,7.09.63,4,4,0,0,0,2.62-.71,4.21,4.21,0,0,0,1-3c.2-2.74.36-5.68-1-8s-4.37-3.8-7.19-4.54c-5.07-1.33-10.38-1.33-15.62-1.33" transform="translate(-31.91 -9.5)"/>
    <path class="cls-2" d="M138,26.08a16.89,16.89,0,0,0-4.67.22,3.06,3.06,0,0,0-1.21.43,3.15,3.15,0,0,0-1,1.39,26.41,26.41,0,0,0-2.08,8.77c-.09,1.26.11,2.84,1.3,3.27a3.1,3.1,0,0,0,2.64-.77c2.69-1.84,5.47-4,6.42-7.1.68-2.24.3-4.65.48-7a14.58,14.58,0,0,1,1.82-6c-1.11,8.8-5.26,17.22-4.83,26.08a38.17,38.17,0,0,0,8.57-2.87" transform="translate(-31.91 -9.5)"/>
  </g>
</svg>
